<svg width="160" height="80" viewBox="0 0 160 80" fill="none" xmlns="http://www.w3.org/2000/svg">
<path d="M27.9365 66.8519C27.9365 67.4254 27.5851 67.8705 27.0239 68.046C27.7281 68.2367 28.1281 68.802 28.1281 69.4474C28.1281 70.5945 27.0559 70.9041 26.0962 70.9041C25.2795 70.9041 24.6156 70.9041 23.8003 70.9041V65.3316C24.6086 65.3316 25.2809 65.3316 26.0962 65.3316C27.0406 65.3316 27.9365 65.7932 27.9365 66.8519ZM24.2322 67.8553H26.1531C26.8253 67.8553 27.5295 67.648 27.5295 66.8519C27.5295 66.0392 26.7934 65.6979 26.0975 65.6979H24.2336V67.8553H24.2322ZM24.2322 70.4909H26.0962C26.8003 70.4909 27.7045 70.3237 27.7045 69.4405C27.6962 68.5726 26.9045 68.2616 26.1517 68.2616C25.4795 68.2616 24.9031 68.2616 24.2309 68.2616V70.4909H24.2322Z" fill="white"/>
<path d="M35.3298 68.6742L33.145 65.3379V65.3296H33.6492L35.5451 68.2596L37.4492 65.3296H37.9534V65.3379L35.7617 68.6742V70.9035H35.3298V68.6742Z" fill="white"/>
<path d="M50.9686 68.9769V70.9035H50.5366V65.331C51.3533 65.331 52.1769 65.331 52.9936 65.331C55.4256 65.331 55.4256 68.9769 52.9936 68.9769H50.9686ZM50.9686 65.729V68.5872H52.9922C54.8561 68.5872 54.8561 65.729 52.9922 65.729H50.9686Z" fill="white"/>
<path d="M60.9939 67.9031H64.2744V68.2929H60.9939V70.4904H64.53V70.905H60.5688V65.3325H64.4328V65.7388H60.9939V67.9031Z" fill="white"/>
<path d="M75.69 68.1255C75.6816 69.5905 74.7455 71.0002 72.8663 71.0002C70.9857 71.0002 70.0413 69.5836 70.0413 68.1103C70.0413 66.6135 70.9774 65.2439 72.8663 65.2439C74.7538 65.2425 75.6983 66.6204 75.69 68.1255ZM70.4649 68.1172C70.4732 69.3749 71.2732 70.6008 72.8649 70.6008C74.4649 70.6008 75.2733 69.3749 75.2733 68.1172C75.2733 66.8278 74.4733 65.6406 72.8649 65.6406C71.2579 65.6406 70.4579 66.8043 70.4649 68.1172Z" fill="white"/>
<path d="M81.9456 68.9769V70.9035H81.5137V65.331C82.3303 65.331 83.154 65.331 83.9706 65.331C86.4026 65.331 86.4026 68.9769 83.9706 68.9769H81.9456ZM81.9456 65.729V68.5872H83.9693C85.8332 68.5872 85.8332 65.729 83.9693 65.729H81.9456Z" fill="white"/>
<path d="M91.9776 65.331V70.4986H95.1304V70.9049H91.5457V65.3324H91.9776V65.331Z" fill="white"/>
<path d="M101.171 67.9031H104.451V68.2929H101.171V70.4904H104.707V70.905H100.746V65.3325H104.61V65.7388H101.169V67.9031H101.171Z" fill="white"/>
<path d="M112.378 65.7205H110.353V65.3391H114.834V65.7205H112.81V70.9033H112.378V65.7205V65.7205Z" fill="white"/>
<path d="M120.874 67.9031H124.155V68.2929H120.874V70.4904H124.41V70.905H120.449V65.3325H124.313V65.7388H120.873V67.9031H120.874Z" fill="white"/>
<path d="M135.571 68.1172C135.571 68.7944 135.348 69.4951 134.916 70.0203L135.628 70.7044L135.356 70.9836L134.652 70.3147C134.196 70.7127 133.539 70.9601 132.747 70.9601C130.843 70.9601 129.899 69.607 129.915 68.0702C129.932 66.5886 130.875 65.259 132.747 65.259C134.635 65.259 135.579 66.5969 135.571 68.1172ZM130.338 68.0702C130.321 69.3914 131.122 70.5537 132.746 70.5537C134.346 70.5537 135.146 69.3997 135.146 68.1172C135.146 66.8042 134.346 65.6654 132.746 65.6654C131.322 65.6654 130.338 66.7074 130.338 68.0702Z" fill="white"/>
<path d="M16.0156 55.409C16.0642 58.3003 14.2919 61.2234 10.271 61.2234C8.8599 61.2234 7.1696 61.2234 5.75708 61.2234V49.7909C7.16821 49.7909 8.85851 49.7909 10.271 49.7909C14.21 49.7909 15.9656 52.5841 16.0156 55.409ZM7.90711 59.1489H10.271C12.8808 59.1489 13.9141 57.2541 13.8655 55.3924C13.8169 53.6123 12.7655 51.8322 10.271 51.8322H7.90711V59.1489Z" fill="white"/>
<path d="M17.9683 61.2234V49.7909H20.1183V61.2234H17.9683Z" fill="white"/>
<path d="M31.0156 52.5836C30.2448 51.8484 29.0948 51.4406 28.0948 51.4406C25.6322 51.4406 24.1392 53.3023 24.1392 55.6546C24.1392 57.5328 25.2392 59.476 28.0948 59.476C28.9976 59.476 29.7851 59.2798 30.6879 58.5611V56.5363H27.7503V54.6084H32.674V59.4263C31.542 60.7171 30.1129 61.4842 28.0948 61.4842C23.778 61.4842 22.0225 58.6592 22.0225 55.6532C22.0225 52.4357 24.0405 49.4629 28.0948 49.4629C29.6378 49.4629 31.1809 50.0503 32.3615 51.2098L31.0156 52.5836Z" fill="white"/>
<path d="M34.7908 61.2234V49.7909H36.9408V61.2234H34.7908Z" fill="white"/>
<path d="M42.8006 51.7507H39.1575V49.7909C42.4728 49.7909 45.2798 49.7909 48.6118 49.7909V51.7507H44.9687V61.2234H42.802V51.7507H42.8006Z" fill="white"/>
<path d="M58.4093 59.0674H52.4023L51.4176 61.2234H49.0703L54.2245 49.7909H56.5885L61.7427 61.2234H59.3788L58.4093 59.0674ZM55.4065 52.1916L53.2731 57.0578H57.5399L55.4065 52.1916Z" fill="white"/>
<path d="M65.3857 49.7909V59.2305H71.2941V61.2234H63.219V49.7909H65.3857Z" fill="white"/>
<path d="M77.9249 55.2294H84.5389V56.0627H77.9249V61.24H77.0388V49.7909H84.7695V50.6727H77.9249V55.2294Z" fill="white"/>
<path d="M96.1915 61.2234L94.9276 58.4137H88.0678L86.8205 61.2234H85.8691L91.022 49.7909H91.9901L97.1443 61.2234H96.1915ZM94.5845 57.5982L91.4984 50.6409L88.4136 57.5982H94.5845Z" fill="white"/>
<path d="M107.747 59.6395C106.599 60.7824 105.072 61.3546 103.562 61.3546C99.6887 61.3546 97.6706 58.6596 97.654 55.5734C97.6206 52.519 99.6234 49.6609 103.562 49.6609C105.072 49.6609 106.599 50.2331 107.747 51.376L107.14 51.8985C106.155 50.9186 104.858 50.4445 103.562 50.4445C100.214 50.4445 98.4915 52.7968 98.5068 55.5402C98.5401 58.2187 100.247 60.5378 103.562 60.5378C104.86 60.5378 106.172 60.0472 107.157 59.0839L107.747 59.6395Z" fill="white"/>
<path d="M113.246 50.591H109.093V49.8074H118.284V50.591H114.131V61.2233H113.245V50.591H113.246Z" fill="white"/>
<path d="M131.382 55.5236C131.366 58.5282 129.446 61.4195 125.589 61.4195C121.732 61.4195 119.796 58.513 119.796 55.4904C119.796 52.4195 121.717 49.6111 125.589 49.6111C129.461 49.6111 131.399 52.436 131.382 55.5236ZM120.664 55.507C120.681 58.0873 122.322 60.6027 125.588 60.6027C128.87 60.6027 130.528 58.0873 130.528 55.507C130.528 52.8617 128.886 50.4279 125.588 50.4279C122.289 50.4279 120.647 52.812 120.664 55.507Z" fill="white"/>
<path d="M142.985 61.2234H141.82L137.848 56.8961H134.713V61.2234H133.827V49.7909C135.517 49.7909 137.191 49.7909 138.881 49.7909C141.376 49.7909 142.64 51.571 142.656 53.3511C142.673 55.2128 141.442 56.8464 138.931 56.8464L142.985 61.2234ZM134.714 56.0627H138.785C140.788 56.0627 141.674 54.9364 141.691 53.3359C141.708 51.9967 140.788 50.6091 138.884 50.6091H134.716V56.0627H134.714Z" fill="white"/>
<path d="M148.287 56.6501L143.806 49.8075V49.7909H144.841L148.731 55.8015L152.637 49.7909H153.672V49.8075L149.174 56.6501V61.2234H148.288V56.6501H148.287Z" fill="white"/>
<path d="M75.383 45.6182H75.365C74.0205 45.6127 73.3913 45.6113 72.9511 45.6113H72.083C71.6427 45.6113 71.0108 45.6099 69.6788 45.6044C69.2968 45.603 68.8802 45.498 68.4399 45.2935C67.8079 44.9991 67.4551 44.3951 67.5218 43.7179C67.5885 43.0324 68.0274 42.4837 68.6941 42.2501C69.0982 42.1092 69.5177 42.0331 69.9052 42.0318L71.7649 42.0249C72.1566 42.0235 72.1566 42.0235 73.0177 42.0166L74.2025 42.0083C74.4691 42.0069 74.7955 41.9267 75.1219 41.7816C75.1719 41.7595 75.2872 41.7084 75.2566 41.4278C75.2428 41.2937 75.1858 41.1237 74.9997 41.0864C74.4677 40.9786 73.8844 40.9247 73.215 40.9206C72.0691 40.9137 70.9219 40.9164 69.776 40.9192C68.4468 40.922 67.1176 40.9261 65.7898 40.915C65.2662 40.9109 64.7134 40.8003 64.1926 40.5972C63.7954 40.441 63.4787 40.1425 63.3217 39.7776C63.1745 39.4362 63.1731 39.0548 63.3176 38.7051C63.5065 38.2463 63.9398 37.7929 64.4245 37.5525C64.8495 37.341 65.3162 37.3341 65.7301 37.3272L65.8482 37.3244C66.2162 37.3175 66.5871 37.3203 66.9565 37.3258C67.1718 37.3286 67.3857 37.3313 67.601 37.3313C67.9121 37.3313 68.1663 37.3258 68.4024 37.3134C68.6857 37.2982 69.0135 37.2083 69.3246 37.0577C69.3788 37.0314 69.5052 36.9706 69.4607 36.7357C69.4316 36.5836 69.358 36.3984 69.0357 36.31C68.8343 36.2547 68.5927 36.2271 68.319 36.2257C66.9885 36.2215 66.1898 36.2201 65.4468 36.2188C64.5315 36.2174 63.6995 36.216 62.0606 36.2091C61.7162 36.2077 61.3523 36.151 61.0078 36.0474C60.2161 35.8069 59.7106 35.1172 59.7481 34.3308C59.7842 33.579 60.3745 32.9059 61.1495 32.7318C61.4453 32.6655 61.7384 32.6309 62.0203 32.6309L66.8426 32.624C69.4621 32.6198 71.7566 32.6171 75.158 32.6088C75.3261 32.6088 75.5289 32.5701 75.7928 32.4872C75.9914 32.425 76.1705 32.1638 76.1747 32.0615C76.1622 31.915 75.8942 31.6137 75.715 31.5902C75.3844 31.5474 75.0178 31.5252 74.5622 31.5239C74.015 31.5211 73.4677 31.5211 72.9205 31.5211H71.6135C70.7469 31.5211 69.8816 31.5197 69.0149 31.5128C68.6538 31.51 68.269 31.4396 67.901 31.3096C66.7787 30.913 66.6232 30.0934 66.6899 29.4742C66.7787 28.6602 67.4607 28.03 68.3121 27.9775C68.9413 27.9388 69.5746 27.9318 70.1871 27.9249C70.5899 27.9208 70.9927 27.9166 71.3941 27.9028C71.5705 27.8973 71.7719 27.8558 71.9622 27.7854C72.3719 27.6333 72.3524 27.4067 72.3441 27.3099C72.3274 27.1123 72.1163 26.8677 71.8705 26.8455C71.283 26.7958 70.6691 26.793 70.0732 26.7916H69.8468C69.1899 26.7889 68.5315 26.7889 67.8746 26.7889H66.9524C66.1023 26.7889 65.2509 26.7889 64.4009 26.7833C64.1579 26.782 63.794 26.7502 63.4495 26.6064C62.5717 26.2416 62.0745 25.4939 62.2134 24.7476C62.3578 23.9667 63.144 23.2881 64.0051 23.201C64.1926 23.1817 64.3759 23.1803 64.5315 23.1803L64.794 23.1817L67.4343 23.1803C69.9246 23.1803 72.4149 23.1789 74.9053 23.172C75.1122 23.172 75.3053 23.1402 75.4511 23.0835C75.7747 22.9578 75.9205 22.6938 75.908 22.6122C75.8803 22.4312 75.6261 22.1396 75.3289 22.1119C74.8886 22.0719 74.4358 22.0677 74.0441 22.0677H73.458C70.7857 22.0622 68.1135 22.0594 65.4412 22.0649C65.4398 22.0649 65.4384 22.0649 65.4384 22.0649C65.1329 22.0649 64.2523 22.0622 63.637 21.32C63.2995 20.9123 63.162 20.3982 63.2606 19.9089C63.3537 19.4473 63.6551 19.0534 64.0856 18.8267C64.5051 18.607 64.9815 18.4771 65.4259 18.4591C65.869 18.4425 66.301 18.4398 66.6649 18.4398L67.5607 18.4412C67.9065 18.4412 68.2524 18.4384 68.5982 18.4287C68.8204 18.4218 69.0649 18.3568 69.2357 18.2587C69.3899 18.1703 69.4746 18.0362 69.4691 17.8911C69.4635 17.7446 69.3677 17.6174 69.2066 17.54C68.9385 17.4129 68.6385 17.3383 68.3857 17.3369C66.8843 17.3272 63.3454 17.3272 59.9245 17.3258C56.4661 17.3258 52.891 17.3258 51.373 17.3148C50.9368 17.312 50.448 17.1973 49.9993 16.9914C49.3979 16.7163 49.0771 16.1165 49.1424 15.3868C49.1979 14.7483 49.5771 14.2479 50.1827 14.0116C50.6563 13.8278 51.0702 13.738 51.4521 13.7366C53.9036 13.7283 58.2286 13.7255 62.6092 13.7228C67.251 13.72 71.9552 13.7172 74.5539 13.7062C74.8691 13.7048 75.2344 13.6315 75.6108 13.4933C75.6636 13.474 75.7733 13.4339 75.7483 13.1188C75.7414 13.0331 75.7289 12.8742 75.4053 12.7525C75.1858 12.671 74.9205 12.624 74.6566 12.6226C74.0552 12.6185 73.4538 12.6171 72.8524 12.6171H71.4066C70.558 12.6171 69.7107 12.6157 68.8635 12.6047C68.3468 12.5977 67.8607 12.4208 67.5426 12.273C66.7954 11.9261 66.4635 11.1466 66.7524 10.4182C66.9274 9.9801 67.3121 9.54475 67.7565 9.28492C68.1843 9.03338 68.6982 9.02923 69.0718 9.02509C70.3663 9.01265 71.7733 9.00574 73.4983 9.00574L74.7705 9.00712C76.7094 9.00988 78.3345 10.2289 78.815 12.0435C79.14 13.2722 79.3039 14.364 79.3192 15.3785C79.3595 18.3099 79.3525 21.2868 79.3456 24.1671C79.3428 25.2631 79.3414 26.3591 79.3414 27.455L79.3289 28.0728C79.3289 28.9808 79.3303 29.8902 79.3317 30.7983C79.3359 33.5776 79.3387 36.4523 79.3192 39.2801C79.3095 40.6096 79.2039 42.1589 78.4789 43.5769C77.7845 44.9327 76.7442 45.6182 75.383 45.6182ZM72.9511 44.3744C73.3913 44.3744 74.0233 44.3758 75.3705 44.3813L75.383 44.9991V44.3813C76.2747 44.3813 76.8858 43.9611 77.3664 43.0213C77.9734 41.8314 78.0636 40.4603 78.072 39.2759C78.0914 36.4523 78.0872 33.5804 78.0845 30.8038C78.0831 29.6885 78.0817 28.5731 78.0817 27.4592L78.0942 26.8414C78.0942 25.9513 78.097 25.0599 78.0984 24.1698C78.1053 21.2951 78.1109 18.3209 78.072 15.4006C78.0595 14.487 77.9081 13.4933 77.6095 12.3628C77.2761 11.0996 76.133 10.251 74.7664 10.2496L73.4955 10.2482C71.7746 10.2482 70.3719 10.2537 69.0816 10.2676C68.8732 10.2703 68.526 10.2731 68.3843 10.356C68.1788 10.4763 67.9774 10.696 67.9051 10.8798C67.8454 11.0305 67.9801 11.1189 68.0649 11.159C68.3579 11.2945 68.6468 11.3718 68.8774 11.3746C69.7191 11.3857 70.5621 11.387 71.4038 11.387H72.8497C73.4538 11.387 74.0594 11.3884 74.6636 11.3926C75.0747 11.3953 75.483 11.4686 75.8414 11.6027C76.5247 11.8597 76.9317 12.3656 76.9845 13.0262C77.0483 13.8098 76.6942 14.4207 76.0372 14.6612C75.5275 14.8478 75.015 14.9473 74.5566 14.9487C71.958 14.9583 67.2524 14.9611 62.6079 14.9652C58.2286 14.968 53.9049 14.9708 51.4549 14.9791C51.2327 14.9804 50.9563 15.044 50.6341 15.1684C50.4688 15.2334 50.3952 15.3287 50.3799 15.4987C50.3535 15.7959 50.4688 15.8484 50.5174 15.8719C50.8063 16.0032 51.1202 16.0806 51.3813 16.082C52.8952 16.0916 56.4689 16.093 59.9245 16.093C63.3481 16.093 66.8885 16.093 68.394 16.1041C68.8302 16.1068 69.3093 16.2215 69.7427 16.4289C70.326 16.7067 70.6871 17.2374 70.7107 17.8482C70.7344 18.4591 70.4149 19.0147 69.8552 19.3354C69.5066 19.5344 69.0621 19.6574 68.6343 19.6698C68.276 19.6809 67.9177 19.6836 67.5593 19.6836L66.6635 19.6823C66.3107 19.6823 65.894 19.685 65.4718 19.7002C65.2121 19.7099 64.9176 19.7928 64.6634 19.9255C64.5607 19.9794 64.4982 20.0568 64.4787 20.1563C64.4537 20.2793 64.4968 20.4175 64.5954 20.5378C64.769 20.7478 65.0107 20.8335 65.4315 20.8335C68.1232 20.828 70.7871 20.8308 73.4594 20.8363H74.0427C74.4608 20.8363 74.9497 20.8404 75.4414 20.886C76.2719 20.9621 77.0164 21.6434 77.1344 22.4353C77.2414 23.1513 76.7094 23.9266 75.8969 24.2403C75.533 24.3799 75.1566 24.4103 74.9066 24.4117C72.4149 24.4186 69.9232 24.42 67.4329 24.42L64.8065 24.4214L64.5287 24.42C64.3982 24.42 64.2593 24.4214 64.1259 24.4352C63.8009 24.4684 63.4718 24.7586 63.4329 24.9742C63.4134 25.082 63.5565 25.3142 63.9273 25.469C64.0509 25.5201 64.2218 25.5492 64.4079 25.5505C65.2551 25.5547 66.1037 25.5561 66.9524 25.5561H67.8746C68.5329 25.5561 69.1927 25.5561 69.8524 25.5588H70.0774C70.6969 25.5602 71.3385 25.563 71.9774 25.6169C72.8066 25.6887 73.5122 26.3867 73.583 27.2076C73.6511 27.9968 73.2066 28.6478 72.3941 28.9477C72.0774 29.0638 71.7469 29.1315 71.4358 29.1412C71.0246 29.155 70.6121 29.1591 70.201 29.1633C69.6038 29.1702 68.9871 29.1757 68.3899 29.213C68.1149 29.2296 67.9454 29.43 67.926 29.6097C67.8954 29.8889 67.9218 30.0063 68.3177 30.1459C68.5538 30.2289 68.8052 30.2758 69.026 30.2772C69.8885 30.2841 70.751 30.2855 71.6135 30.2855H72.9205C73.4691 30.2855 74.0177 30.2855 74.5664 30.2883C75.0761 30.2897 75.4941 30.3145 75.8775 30.3657C76.6178 30.4638 77.3483 31.2239 77.4122 31.9634C77.472 32.6475 76.8872 33.4449 76.1622 33.6702C75.7747 33.7905 75.4553 33.8471 75.1594 33.8471C71.7566 33.8554 69.4621 33.8582 66.8426 33.8623L62.0203 33.8692C61.8301 33.8692 61.6287 33.8927 61.4217 33.9397C61.1648 33.9978 60.9953 34.2189 60.987 34.3917C60.9759 34.6128 61.1189 34.7911 61.3689 34.8671C61.5981 34.9362 61.8384 34.9735 62.0634 34.9749C63.7009 34.9804 64.5315 34.9818 65.4468 34.9846C66.1898 34.986 66.9899 34.9873 68.3204 34.9915C68.7038 34.9929 69.0552 35.0357 69.3621 35.1186C70.0705 35.3121 70.551 35.8193 70.6816 36.5104C70.8149 37.2166 70.4941 37.869 69.8663 38.173C69.5427 38.3292 69.0371 38.5199 68.4663 38.5503C68.2079 38.5641 67.9329 38.5697 67.601 38.5697C67.3815 38.5697 67.1607 38.5669 66.9412 38.5641C66.5857 38.56 66.2287 38.5545 65.8746 38.5628L65.7496 38.5655C65.469 38.5697 65.1509 38.5752 64.9801 38.6609C64.7676 38.7659 64.5426 38.9926 64.4676 39.175C64.4495 39.2206 64.4482 39.2566 64.4648 39.2953C64.4912 39.3574 64.5607 39.4169 64.6482 39.4514C65.0232 39.5979 65.4329 39.6809 65.801 39.6836C67.126 39.6947 68.4496 39.6919 69.7732 39.6878C70.9233 39.685 72.0733 39.6822 73.2233 39.6891C73.9747 39.6933 74.6386 39.7555 75.2497 39.8799C75.9275 40.0181 76.415 40.5751 76.4942 41.3006C76.5733 42.0387 76.2511 42.6426 75.6289 42.9163C75.29 43.0669 74.7705 43.2452 74.2136 43.2494L73.0288 43.2577C72.1635 43.2646 72.1635 43.2646 71.7705 43.266L69.9121 43.2729C69.6607 43.2742 69.3829 43.3254 69.1066 43.4221C68.8232 43.5216 68.7718 43.7096 68.7593 43.8437C68.7496 43.9501 68.7635 44.0841 68.9677 44.1795C69.2357 44.3039 69.4899 44.373 69.6843 44.3744C71.0149 44.3799 71.6441 44.3813 72.083 44.3813L72.9511 44.3744Z" fill="white"/>
<path d="M96.375 27.3747C97.3014 26.1419 97.8625 24.4282 98.0306 21.9529C98.407 16.314 93.4361 13.8995 92.15 13.3716C90.0596 7.72581 81.5776 9.13828 81.2109 9.20324C80.9123 9.25576 80.6956 9.51283 80.6984 9.81274C80.6984 10.0657 80.7692 35.0881 80.704 38.488C80.6512 41.3199 80.8776 43.4524 82.1554 44.6838C82.8012 45.3058 83.6623 45.6181 84.7221 45.6181C84.8221 45.6181 84.9207 45.6153 85.0207 45.6084C87.7207 45.4661 89.218 43.4883 89.786 42.1311C89.8666 42.1339 89.9471 42.1367 90.0249 42.1367C90.9416 42.1367 91.6833 41.8837 91.8513 41.8216C93.0847 41.4691 93.9583 40.7947 94.4417 39.8189C95.0847 38.5239 94.8583 37.0396 94.65 36.2242C96.6472 35.4765 97.85 34.3666 98.2264 32.9127C98.8292 30.5964 97.0736 28.2095 96.375 27.3747ZM97.025 32.6059C96.7236 33.753 95.6056 34.6403 93.6916 35.2456C93.5264 35.2982 93.393 35.4156 93.3194 35.5704C93.2458 35.7252 93.2389 35.9007 93.3041 36.0625C93.3097 36.0804 94.0028 37.9172 93.3291 39.2689C93 39.9364 92.3972 40.3842 91.4902 40.6413C91.4722 40.6468 91.4499 40.6537 91.4305 40.6592C91.4152 40.6648 89.743 41.2936 88.5513 40.4989C87.6791 39.9184 87.2179 38.6939 87.1818 36.8641C87.1721 36.5241 86.8776 36.2463 86.5443 36.2587C86.2026 36.2684 85.929 36.5489 85.9388 36.8889C85.986 39.1555 86.6346 40.7159 87.8679 41.5327C88.086 41.6778 88.3096 41.7898 88.536 41.8755C88.1193 42.7379 87.0888 44.2651 84.9568 44.377C84.1054 44.4198 83.4748 44.2319 83.0207 43.7993C82.0081 42.8249 81.9081 40.6827 81.9484 38.5156C82.0081 35.3839 81.9512 14.0502 81.9429 10.3559C83.7443 10.1555 89.7221 9.82379 91.0666 14.035C91.1249 14.2202 91.2722 14.3722 91.4611 14.433C91.6944 14.5104 97.1584 16.3997 96.7917 21.8713C96.4222 27.3775 94.1041 28.4804 88.9013 29.6828C88.5652 29.7602 88.3582 30.0933 88.4346 30.425C88.5124 30.7594 88.8485 30.9626 89.1832 30.8894C91.8638 30.2674 94.0139 29.6469 95.5278 28.3021C96.1611 29.0871 97.4528 30.9543 97.025 32.6059Z" fill="white"/>
<path d="M91.5346 22.9493C90.2068 22.9493 89.0901 22.5941 88.1971 21.8879C86.2068 20.3109 86.1443 17.5855 86.1429 17.4694C86.1387 17.128 86.4123 16.8474 86.7554 16.8419C86.7582 16.8419 86.7609 16.8419 86.7651 16.8419C87.104 16.8419 87.3804 17.1114 87.3859 17.45C87.3859 17.4721 87.4484 19.7194 88.979 20.9259C89.9707 21.7082 91.3957 21.9086 93.2138 21.5202C93.5485 21.4484 93.8791 21.6612 93.9513 21.9957C94.0235 22.3301 93.8096 22.6577 93.4735 22.7295C92.7846 22.876 92.1388 22.9493 91.5346 22.9493Z" fill="white"/>
</svg>
