<svg width="162" height="54" viewBox="0 0 162 54" fill="none" xmlns="http://www.w3.org/2000/svg">
<path d="M50.4187 43.3385V10.8121H56.7032V37.6696H73.843V43.3385H50.4187ZM76.8408 13.972C76.8408 9.5576 83.6965 9.5576 83.6965 13.972C83.6965 18.386 76.8408 18.386 76.8408 13.972ZM83.1729 43.3385H77.3647V20.3378H83.1729V43.3385ZM105.216 43.3385V31.3505C105.216 27.8656 103.264 25.217 99.5501 25.217C95.9794 25.217 93.5514 28.1445 93.5514 31.6294V43.3388H87.7906V20.3846H92.9802L93.3612 23.4977C95.7415 21.221 98.1221 20.0592 101.074 20.0592C106.597 20.0592 111.024 24.1017 111.024 31.304V43.3388L105.216 43.3385ZM137.399 43.3385H130.401L121.212 32.9766V43.3385H115.404V10.8586H121.212V29.6309L129.115 20.4305H136.067V20.7559L126.497 31.2108L137.4 42.9204L137.399 43.3385Z" fill="white"/>
<path d="M143.501 12.9429C142.112 12.9429 141.345 13.3638 141.345 14.0886C141.345 14.8371 142.04 15.2574 143.549 15.3512C145.777 15.4915 148.604 15.9822 148.604 19.0452C148.604 21.0791 146.903 22.8327 143.525 22.8327C141.657 22.8327 139.788 22.5288 138.063 20.7754L139.501 18.7415C140.339 19.6531 142.256 20.3315 143.573 20.3546C144.675 20.3779 145.705 19.8165 145.705 18.9751C145.705 18.1801 145.034 17.8527 143.358 17.7592C141.129 17.5955 138.471 16.8009 138.471 14.1824C138.471 11.5172 141.297 10.5819 143.453 10.5819C145.298 10.5819 146.687 10.9327 148.053 12.1017L146.424 13.9723C145.585 13.2004 144.627 12.9429 143.501 12.9429ZM161.946 17.6891H152.723C152.915 19.1153 154.185 20.1438 156.245 20.1438C157.323 20.1438 158.736 19.7461 159.407 19.0683L161.275 20.8687C160.03 22.131 157.993 22.7392 156.197 22.7392C152.125 22.7392 149.705 20.2844 149.705 16.5904C149.705 13.0832 152.148 10.5583 155.981 10.5583C159.934 10.5583 162.401 12.9429 161.946 17.6891ZM156.077 13.0832C154.496 13.0832 153.203 13.8317 152.771 15.3275H159.143C158.952 13.8317 157.754 13.0832 156.077 13.0832Z" fill="white"/>
<g clip-path="url(#clip0_1_1534)">
<path d="M40.1851 31.5928C40.1851 30.8969 39.7858 30.2567 39.1583 29.9227L38.759 29.7L27.151 23.1866L27.094 23.2144V9.24124C27.094 9.15774 27.094 9.10207 27.094 9.01856V7.98867C27.094 7.71032 27.0084 7.4598 26.8658 7.26496C26.7803 7.09795 26.6377 6.98661 26.5236 6.93094L14.6877 0.537681C14.0887 0.175826 13.3187 0.175826 12.7198 0.537681L0.655879 7.07011C0.598839 7.09795 0.570318 7.12578 0.513278 7.15362C0.171034 7.3763 -0.0571289 7.76599 -0.0571289 8.21135V8.65671V8.68454V22.1289V24.0217C-0.0571289 24.0495 -0.0571289 24.0773 -0.0571289 24.1052V37.1041C-0.0571289 38.0784 0.513278 39.0526 1.36889 39.5258L13.3759 46.2897V46.3454L25.383 53.332L25.6397 53.4711C26.3812 53.8608 27.2368 53.8608 27.9784 53.5268L28.0924 53.4711L28.1495 53.4433L28.2065 53.4155L28.2636 53.3876L38.8731 47.2361C39.7002 46.7351 40.2136 45.9278 40.2136 44.9258V33.2072V33.2351V31.5928H40.1851Z" fill="#272727"/>
<path d="M38.4738 32.1217L28.292 37.9949C27.522 38.4402 27.0657 39.2474 27.0657 40.0546V52.0516C27.0657 52.4969 27.522 52.7474 27.8928 52.4969L38.0745 46.6237C38.8446 46.1784 39.3009 45.3711 39.3009 44.5639V32.6505C39.3009 32.1773 38.8731 31.9268 38.4738 32.1217Z" fill="url(#paint0_linear_1_1534)"/>
<path d="M15.2012 15.1979C14.4312 15.6433 13.9749 16.4505 13.9749 17.2577V29.1711C13.9749 29.6165 14.4312 29.867 14.8019 29.6165L24.9837 23.7433C25.7537 23.2979 26.2101 22.4907 26.2101 21.6835V9.77008C26.2101 9.32472 25.7538 9.0742 25.383 9.32472L15.2012 15.1979Z" fill="url(#paint1_linear_1_1534)"/>
<path d="M25.3831 8.267C25.7538 8.07215 25.7538 7.51545 25.3831 7.3206L15.0872 1.58658C14.3172 1.14122 13.433 1.14122 12.663 1.58658L2.0249 7.51545C1.65414 7.7103 1.65414 8.267 2.0249 8.46184L12.3207 14.1959C13.0908 14.6412 13.9749 14.6412 14.745 14.1959L25.3831 8.267Z" fill="url(#paint2_linear_1_1534)"/>
<path d="M38.4168 31.2309C38.7876 31.0361 38.7876 30.4794 38.4168 30.2845L28.1209 24.5505C27.3509 24.1052 26.4668 24.1052 25.6967 24.5505L15.0872 30.4237C14.7164 30.6186 14.7164 31.1753 15.0872 31.3701L25.383 37.1041C26.153 37.5495 27.0372 37.5495 27.8072 37.1041L38.4168 31.2309Z" fill="url(#paint3_linear_1_1534)"/>
<path d="M25.0408 37.9113L14.8305 32.0381C14.4597 31.8433 14.0034 32.0938 14.0034 32.4835V44.3969C14.0034 45.2598 14.4597 46.0113 15.2298 46.4567L25.383 52.3299C25.7538 52.5247 26.2101 52.2742 26.2101 51.8845V39.9711C26.2672 39.1639 25.7538 38.3567 25.0408 37.9113Z" fill="url(#paint4_linear_1_1534)"/>
<path d="M12.0642 30.4794L1.6828 24.4949C1.31204 24.3 0.855713 24.5505 0.855713 24.9402V36.8536C0.855713 37.7165 1.31204 38.4681 2.08209 38.9134L12.2638 44.7866C12.6346 44.9815 13.0909 44.731 13.0909 44.3413V32.233C13.148 31.5371 12.6916 30.8691 12.0642 30.4794Z" fill="url(#paint5_linear_1_1534)"/>
<path d="M11.8358 15.198L1.68256 9.32477C1.31179 9.12992 0.855469 9.38044 0.855469 9.77013V21.6835C0.855469 22.5464 1.31179 23.298 2.08184 23.7433L12.2636 29.6165C12.6344 29.8114 13.0907 29.5609 13.0907 29.1712V17.2578C13.0622 16.4505 12.5488 15.6433 11.8358 15.198Z" fill="url(#paint6_linear_1_1534)"/>
</g>
<defs>
<linearGradient id="paint0_linear_1_1534" x1="-0.835934" y1="20.334" x2="24.2394" y2="37.3325" gradientUnits="userSpaceOnUse">
<stop stop-color="#EEED68"/>
<stop offset="1" stop-color="#63C285"/>
</linearGradient>
<linearGradient id="paint1_linear_1_1534" x1="5.94204" y1="10.3354" x2="31.0174" y2="27.3339" gradientUnits="userSpaceOnUse">
<stop stop-color="#EEED68"/>
<stop offset="1" stop-color="#63C285"/>
</linearGradient>
<linearGradient id="paint2_linear_1_1534" x1="9.45413" y1="5.15468" x2="34.5295" y2="22.1532" gradientUnits="userSpaceOnUse">
<stop stop-color="#EEED68"/>
<stop offset="1" stop-color="#63C285"/>
</linearGradient>
<linearGradient id="paint3_linear_1_1534" x1="2.61099" y1="15.2493" x2="27.6864" y2="32.2478" gradientUnits="userSpaceOnUse">
<stop stop-color="#EEED68"/>
<stop offset="1" stop-color="#63C285"/>
</linearGradient>
<linearGradient id="paint4_linear_1_1534" x1="-4.76131" y1="26.1246" x2="20.3141" y2="43.1231" gradientUnits="userSpaceOnUse">
<stop stop-color="#EEED68"/>
<stop offset="1" stop-color="#63C285"/>
</linearGradient>
<linearGradient id="paint5_linear_1_1534" x1="-5.30479" y1="26.7163" x2="19.7706" y2="43.7148" gradientUnits="userSpaceOnUse">
<stop stop-color="#EEED68"/>
<stop offset="1" stop-color="#63C285"/>
</linearGradient>
<linearGradient id="paint6_linear_1_1534" x1="1.77978" y1="16.1388" x2="26.8552" y2="33.1373" gradientUnits="userSpaceOnUse">
<stop stop-color="#EEED68"/>
<stop offset="1" stop-color="#63C285"/>
</linearGradient>
<clipPath id="clip0_1_1534">
<rect width="40.2137" height="54" fill="white"/>
</clipPath>
</defs>
</svg>
